<?xml version="1.0" encoding="utf-8"?>
<!-- Generator: Adobe Illustrator 22.1.0, SVG Export Plug-In . SVG Version: 6.00 Build 0)  -->
<svg version="1.1" id="Calque_1" xmlns="http://www.w3.org/2000/svg" xmlns:xlink="http://www.w3.org/1999/xlink" x="0px" y="0px"
	 viewBox="0 0 24 24" enable-background="new 0 0 24 24" xml:space="preserve">
<g>
	<g>
		<path fill="none" stroke="#000000" stroke-linecap="round" stroke-linejoin="round" stroke-miterlimit="10" d="M1.5,23.4l2.8,0.1
			l1-1l1.5,0.1l-0.1-1.4h0l0,0l0,0l1.4,0.1L8,19.9l0,0L9.4,20l-0.1-1.5l5-5c2.2,1,4.8,0.6,6.6-1.2c2.3-2.3,2.3-6,0-8.3
			c-2.3-2.3-6-2.3-8.3,0c-1.8,1.8-2.2,4.5-1.2,6.6l-10,10L1.5,23.4z"/>
		<path fill="none" stroke="#000000" stroke-linecap="round" stroke-linejoin="round" stroke-miterlimit="10" d="M20.1,7.1l0.1-0.1
			c0.3-0.3,0.3-0.9,0-1.3l-0.9-0.9c-0.3-0.3-0.9-0.3-1.3,0l-0.1,0.1c-0.3,0.3-0.3,0.9,0,1.3l0.9,0.9C19.2,7.4,19.8,7.4,20.1,7.1z"/>
	</g>
	<path fill="none" stroke="#000000" stroke-linejoin="round" stroke-miterlimit="10" d="M22,13.7v6.7c0,0.5-0.4,0.8-0.8,0.8h-11"/>
	<path fill="none" stroke="#000000" stroke-linejoin="round" stroke-miterlimit="10" d="M1.3,18V1.3c0-0.5,0.4-0.8,0.8-0.8h19.1
		c0.5,0,0.8,0.4,0.8,0.8v1.2"/>
</g>
</svg>
