<?xml version="1.0" encoding="utf-8"?>
<!-- Generator: Adobe Illustrator 22.1.0, SVG Export Plug-In . SVG Version: 6.00 Build 0)  -->
<svg version="1.1" id="Calque_1" xmlns="http://www.w3.org/2000/svg" xmlns:xlink="http://www.w3.org/1999/xlink" x="0px" y="0px"
	 viewBox="0 0 24 24" enable-background="new 0 0 24 24" xml:space="preserve">
<g>
	<circle fill="none" stroke="#000000" stroke-miterlimit="10" cx="11.9" cy="11.9" r="6.8"/>
	<path fill="none" stroke="#000000" stroke-linecap="round" stroke-linejoin="round" stroke-miterlimit="10" d="M17.2,4.5l2,2
		L12.9,13c-0.6,0.6-1.5,0.6-2,0c-0.6-0.6-0.6-1.5,0-2L17.2,4.5z"/>
	<path fill="none" stroke="#000000" stroke-linecap="round" stroke-linejoin="round" stroke-miterlimit="10" d="M23.5,20.5l-0.1,2.9
		l-2.9,0.1l-2.1-2.1c-1.8,1.3-4.1,2-6.5,2c-6.3,0-11.4-5.1-11.4-11.5c0-6.3,5.1-11.4,11.4-11.4s11.5,5.1,11.5,11.4
		c0,2.4-0.7,4.6-2,6.4L23.5,20.5z"/>
</g>
</svg>
