<?xml version="1.0" encoding="utf-8"?>
<!-- Generator: Adobe Illustrator 22.1.0, SVG Export Plug-In . SVG Version: 6.00 Build 0)  -->
<svg version="1.1" id="Calque_1" xmlns="http://www.w3.org/2000/svg" xmlns:xlink="http://www.w3.org/1999/xlink" x="0px" y="0px"
	 viewBox="0 0 24 24" enable-background="new 0 0 24 24" xml:space="preserve">
<g>
	<g>
		<path fill="none" stroke="#000000" stroke-linecap="round" stroke-linejoin="round" stroke-miterlimit="10" d="M4.7,16.5
			c-2.6-2.1-4.2-4.6-4.2-4.6S5.6,4.2,12,4.2c1.4,0,2.8,0.4,4,1"/>
		<path fill="none" stroke="#000000" stroke-linecap="round" stroke-linejoin="round" stroke-miterlimit="10" d="M19.5,7.4
			c2.5,2.1,4,4.4,4,4.4s-5.1,7.7-11.5,7.7c-1.4,0-2.6-0.3-3.9-0.9"/>
		<path fill="none" stroke="#000000" stroke-linecap="round" stroke-linejoin="round" stroke-miterlimit="10" d="M16.8,10
			c0.3,0.6,0.4,1.3,0.4,2c0,2.9-2.4,5.3-5.3,5.3c-0.7,0-1.4-0.1-2-0.4"/>
		<path fill="none" stroke="#000000" stroke-linecap="round" stroke-linejoin="round" stroke-miterlimit="10" d="M7.2,14.1
			c-0.3-0.6-0.4-1.3-0.4-2.1c0-2.9,2.4-5.3,5.3-5.3c0.7,0,1.4,0.1,2,0.4"/>
	</g>
	
		<line fill="none" stroke="#000000" stroke-linecap="round" stroke-linejoin="round" stroke-miterlimit="10" x1="1.2" y1="22.8" x2="22.8" y2="1.2"/>
</g>
</svg>
