<?xml version="1.0" encoding="utf-8"?>
<!-- Generator: Adobe Illustrator 22.1.0, SVG Export Plug-In . SVG Version: 6.00 Build 0)  -->
<svg version="1.1" id="Calque_1" xmlns="http://www.w3.org/2000/svg" xmlns:xlink="http://www.w3.org/1999/xlink" x="0px" y="0px"
	 viewBox="0 0 24 24" enable-background="new 0 0 24 24" xml:space="preserve">
<g>
	<path fill="none" stroke="#010101" stroke-miterlimit="10" d="M1,2.8h17.5c0.3,0,0.5,0.2,0.5,0.5v17.5c0,0.3-0.2,0.5-0.5,0.5H1
		c-0.3,0-0.5-0.2-0.5-0.5V3.3C0.5,3,0.7,2.8,1,2.8z"/>
	<path fill="none" stroke="#010101" stroke-miterlimit="10" d="M20.1,4.4h0.7c0.3,0,0.5,0.2,0.5,0.5v14.3c0,0.3-0.2,0.5-0.5,0.5
		h-0.7"/>
	<path fill="none" stroke="#010101" stroke-miterlimit="10" d="M22.5,6H23c0.3,0,0.5,0.2,0.5,0.5v11c0,0.3-0.2,0.5-0.5,0.5h-0.5"/>
	<g>
		<g>
			<polygon fill="none" stroke="#000000" stroke-linecap="round" stroke-linejoin="round" stroke-miterlimit="10" points="8.1,8.8 
				13,12 8.1,15.2 			"/>
		</g>
		<circle fill="none" stroke="#000000" stroke-linejoin="round" stroke-miterlimit="10" cx="9.7" cy="12" r="5.6"/>
	</g>
</g>
</svg>
