<?xml version="1.0" encoding="utf-8"?>
<!-- Generator: Adobe Illustrator 22.1.0, SVG Export Plug-In . SVG Version: 6.00 Build 0)  -->
<svg version="1.1" id="Calque_1" xmlns="http://www.w3.org/2000/svg" xmlns:xlink="http://www.w3.org/1999/xlink" x="0px" y="0px"
	 viewBox="0 0 24 24" enable-background="new 0 0 24 24" xml:space="preserve">
<g>
	<g>
		<g>
			<path fill="none" stroke="#820F51" stroke-linejoin="round" stroke-miterlimit="10" d="M4.8,5V1c0-0.3,0.2-0.5,0.5-0.5h11.5v5h5
				V23c0,0.3-0.2,0.5-0.5,0.5h-16c-0.3,0-0.5-0.2-0.5-0.5V7.6"/>
			<polygon fill="none" stroke="#820F51" stroke-linejoin="round" stroke-miterlimit="10" points="16.8,0.5 16.8,5.5 21.8,5.5 			
				"/>
		</g>
		<path fill="#820F51" d="M10.4,3.6c0.6-0.9,1.8-1.2,2.9-1.3c-1-0.5-2.1-0.3-3,0.3l0,0c-1-0.3-2.2-0.3-3,0.5
			C8.3,2.8,9.5,2.8,10.4,3.6z"/>
		<path fill="#820F51" d="M9.4,5.9c0.9-0.6,2-0.8,3.1-0.9c-0.7-0.4-1.5-0.4-2.3-0.3l0,0C9.1,4.8,8.1,5.3,7.3,6
			C5.6,5.5,3.5,5.9,2.2,7.2C2.6,7.2,3,7,3.4,6.9c1.5-0.3,3.1-0.1,4.3,0.7C8.1,6.9,8.7,6.3,9.4,5.9z"/>
	</g>
	<g>
		<g>
			<path fill="none" stroke="#820F51" stroke-linecap="round" stroke-linejoin="round" stroke-miterlimit="10" d="M17.5,12
				c0,1-2,1.8-4.3,1.8c-2.4,0-4.3-0.8-4.3-1.8c0-1,1.9-1.8,4.3-1.8C15.5,10.2,17.5,11,17.5,12z"/>
			<path fill="none" stroke="#820F51" stroke-linecap="round" stroke-linejoin="round" stroke-miterlimit="10" d="M8.9,12v5.9
				c0,1,1.9,1.8,4.3,1.8c2.4,0,4.3-0.8,4.3-1.8V12"/>
		</g>
	</g>
</g>
</svg>
