<svg id="drag-drop" viewBox="0 0 23 32" xmlns="http://www.w3.org/2000/svg" xmlns:xlink="http://www.w3.org/1999/xlink">
    <path d="M0.466 0c-0.008-0.001-0.017-0.001-0.026-0.001-0.243 0-0.441 0.197-0.441 0.441 0 0.009 0 0.019 0.001 0.028l-0-0.001c-0.001 0.008-0.001 0.017-0.001 0.026 0 0.243 0.197 0.441 0.441 0.441 0.009 0 0.019-0 0.028-0.001l-0.001 0c0.008 0 0.017 0.001 0.026 0.001 0.243 0 0.441-0.197 0.441-0.441 0-0.009-0-0.019-0.001-0.028l0 0.001c0-0.008 0.001-0.017 0.001-0.026 0-0.243-0.197-0.441-0.441-0.441-0.009 0-0.018 0-0.027 0.001l0.001-0z"></path>
    <path d="M2.33 0c-0.008-0.001-0.017-0.001-0.026-0.001-0.243 0-0.441 0.197-0.441 0.441 0 0.009 0 0.019 0.001 0.028l-0-0.001c-0 0.008-0.001 0.017-0.001 0.026 0 0.243 0.197 0.441 0.441 0.441 0.009 0 0.019-0 0.028-0.001l-0.001 0c0.008 0 0.017 0.001 0.026 0.001 0.243 0 0.441-0.197 0.441-0.441 0-0.009-0-0.019-0.001-0.028l0 0.001c0.001-0.008 0.001-0.017 0.001-0.026 0-0.243-0.197-0.441-0.441-0.441-0.009 0-0.018 0-0.027 0.001l0.001-0z"></path>
    <path d="M4.195 0c-0.008-0.001-0.017-0.001-0.026-0.001-0.243 0-0.441 0.197-0.441 0.441 0 0.009 0 0.019 0.001 0.028l-0-0.001c-0.001 0.008-0.001 0.017-0.001 0.026 0 0.243 0.197 0.441 0.441 0.441 0.009 0 0.019-0 0.028-0.001l-0.001 0c0.008 0 0.017 0.001 0.026 0.001 0.243 0 0.441-0.197 0.441-0.441 0-0.009-0-0.019-0.001-0.028l0 0.001c0-0.008 0.001-0.017 0.001-0.026 0-0.243-0.197-0.441-0.441-0.441-0.009 0-0.018 0-0.027 0.001l0.001-0z"></path>
    <path d="M6.059 0c-0.008-0.001-0.017-0.001-0.026-0.001-0.243 0-0.441 0.197-0.441 0.441 0 0.009 0 0.019 0.001 0.028l-0-0.001c-0 0.008-0.001 0.017-0.001 0.026 0 0.243 0.197 0.441 0.441 0.441 0.009 0 0.019-0 0.028-0.001l-0.001 0c0.008 0 0.017 0.001 0.026 0.001 0.243 0 0.441-0.197 0.441-0.441 0-0.009-0-0.019-0.001-0.028l0 0.001c0-0.008 0.001-0.017 0.001-0.026 0-0.243-0.197-0.441-0.441-0.441-0.009 0-0.018 0-0.027 0.001l0.001-0z"></path>
    <path d="M7.923 0c-0.008-0.001-0.017-0.001-0.026-0.001-0.243 0-0.441 0.197-0.441 0.441 0 0.009 0 0.019 0.001 0.028l-0-0.001c-0 0.005-0 0.011-0 0.018 0 0.258 0.209 0.466 0.466 0.466s0.466-0.209 0.466-0.466c0-0.006-0-0.012-0-0.018l0 0.001c0.001-0.008 0.001-0.017 0.001-0.026 0-0.243-0.197-0.441-0.441-0.441-0.009 0-0.018 0-0.027 0.001l0.001-0z"></path>
    <path d="M9.787 0c-0.008-0.001-0.017-0.001-0.026-0.001-0.243 0-0.441 0.197-0.441 0.441 0 0.009 0 0.019 0.001 0.028l-0-0.001c0.010 0.25 0.215 0.449 0.466 0.449s0.456-0.199 0.466-0.448l0-0.001c0.001-0.008 0.001-0.017 0.001-0.026 0-0.243-0.197-0.441-0.441-0.441-0.009 0-0.018 0-0.027 0.001l0.001-0z"></path>
    <path d="M11.651 0c-0.008-0.001-0.017-0.001-0.026-0.001-0.243 0-0.441 0.197-0.441 0.441 0 0.009 0 0.019 0.001 0.028l-0-0.001c-0 0.005-0 0.011-0 0.018 0 0.258 0.209 0.466 0.466 0.466s0.466-0.209 0.466-0.466c0-0.006-0-0.012-0-0.018l0 0.001c0.001-0.008 0.001-0.017 0.001-0.026 0-0.243-0.197-0.441-0.441-0.441-0.009 0-0.018 0-0.027 0.001l0.001-0z"></path>
    <path d="M11.651 1.864c-0.008-0-0.017-0.001-0.026-0.001-0.243 0-0.441 0.197-0.441 0.441 0 0.009 0 0.019 0.001 0.028l-0-0.001c-0 0.005-0 0.011-0 0.018 0 0.257 0.209 0.466 0.466 0.466s0.466-0.209 0.466-0.466c0-0.006-0-0.012-0-0.018l0 0.001c0.001-0.008 0.001-0.017 0.001-0.026 0-0.243-0.197-0.441-0.441-0.441-0.009 0-0.018 0-0.027 0.001l0.001-0z"></path>
    <path d="M11.651 3.729c-0.008-0.001-0.017-0.001-0.026-0.001-0.243 0-0.441 0.197-0.441 0.441 0 0.009 0 0.019 0.001 0.028l-0-0.001c-0 0.005-0 0.011-0 0.018 0 0.258 0.209 0.466 0.466 0.466s0.466-0.209 0.466-0.466c0-0.006-0-0.012-0-0.018l0 0.001c0.001-0.008 0.001-0.017 0.001-0.026 0-0.243-0.197-0.441-0.441-0.441-0.009 0-0.018 0-0.027 0.001l0.001-0z"></path>
    <path d="M13.982 1.864c-0.008-0-0.017-0.001-0.026-0.001-0.243 0-0.441 0.197-0.441 0.441 0 0.009 0 0.019 0.001 0.028l-0-0.001c-0 0.005-0 0.011-0 0.018 0 0.257 0.209 0.466 0.466 0.466s0.466-0.209 0.466-0.466c0-0.006-0-0.012-0-0.018l0 0.001c0.001-0.008 0.001-0.017 0.001-0.026 0-0.243-0.197-0.441-0.441-0.441-0.009 0-0.018 0-0.027 0.001l0.001-0z"></path>
    <path d="M11.651 5.593c-0.008-0-0.017-0.001-0.026-0.001-0.243 0-0.441 0.197-0.441 0.441 0 0.009 0 0.019 0.001 0.028l-0-0.001c-0 0.005-0 0.011-0 0.018 0 0.258 0.209 0.466 0.466 0.466s0.466-0.209 0.466-0.466c0-0.006-0-0.012-0-0.018l0 0.001c0.001-0.008 0.001-0.017 0.001-0.026 0-0.243-0.197-0.441-0.441-0.441-0.009 0-0.018 0-0.027 0.001l0.001-0z"></path>
    <path d="M15.38 3.262c-0.008-0.001-0.017-0.001-0.026-0.001-0.243 0-0.441 0.197-0.441 0.441 0 0.009 0 0.019 0.001 0.028l-0-0.001c-0 0.005-0 0.011-0 0.018 0 0.258 0.209 0.466 0.466 0.466s0.466-0.209 0.466-0.466c0-0.006-0-0.012-0-0.018l0 0.001c0.001-0.008 0.001-0.017 0.001-0.026 0-0.243-0.197-0.441-0.441-0.441-0.009 0-0.019 0-0.028 0.001l0.001-0z"></path>
    <path d="M2.33 20.506c-0.005-0-0.011-0-0.018-0-0.257 0-0.466 0.209-0.466 0.466s0.209 0.466 0.466 0.466c0.006 0 0.012-0 0.018-0l-0.001 0c0.005 0 0.011 0 0.018 0 0.257 0 0.466-0.209 0.466-0.466s-0.209-0.466-0.466-0.466c-0.006 0-0.012 0-0.018 0l0.001-0z"></path>
    <path d="M4.195 20.506c-0.25 0.010-0.449 0.215-0.449 0.466s0.199 0.456 0.448 0.466l0.001 0c0.005 0 0.011 0 0.018 0 0.258 0 0.466-0.209 0.466-0.466s-0.209-0.466-0.466-0.466c-0.006 0-0.012 0-0.018 0l0.001-0z"></path>
    <path d="M6.059 20.506c-0.005-0-0.011-0-0.018-0-0.258 0-0.466 0.209-0.466 0.466s0.209 0.466 0.466 0.466c0.006 0 0.012-0 0.018-0l-0.001 0c0.005 0 0.011 0 0.018 0 0.258 0 0.466-0.209 0.466-0.466s-0.209-0.466-0.466-0.466c-0.006 0-0.012 0-0.018 0l0.001-0z"></path>
    <path d="M7.923 20.506c-0.258 0-0.466 0.209-0.466 0.466s0.209 0.466 0.466 0.466c0.258 0 0.466-0.209 0.466-0.466v0c0.001-0.008 0.001-0.017 0.001-0.026 0-0.243-0.197-0.441-0.441-0.441-0.009 0-0.019 0-0.028 0.001l0.001-0z"></path>
    <path d="M9.787 20.506c-0.258 0-0.466 0.209-0.466 0.466s0.209 0.466 0.466 0.466c0.258 0 0.466-0.209 0.466-0.466v0c0.001-0.008 0.001-0.017 0.001-0.026 0-0.243-0.197-0.441-0.441-0.441-0.009 0-0.019 0-0.028 0.001l0.001-0z"></path>
    <path d="M0.466 1.864c-0.008-0-0.017-0.001-0.026-0.001-0.243 0-0.441 0.197-0.441 0.441 0 0.009 0 0.019 0.001 0.028l-0-0.001c-0.001 0.008-0.001 0.017-0.001 0.026 0 0.243 0.197 0.441 0.441 0.441 0.009 0 0.019-0 0.028-0.001l-0.001 0c0.008 0.001 0.017 0.001 0.026 0.001 0.243 0 0.441-0.197 0.441-0.441 0-0.009-0-0.019-0.001-0.028l0 0.001c0-0.008 0.001-0.017 0.001-0.026 0-0.243-0.197-0.441-0.441-0.441-0.009 0-0.019 0-0.028 0.001l0.001-0z"></path>
    <path d="M0.466 3.729c-0.008-0.001-0.017-0.001-0.026-0.001-0.243 0-0.441 0.197-0.441 0.441 0 0.009 0 0.019 0.001 0.028l-0-0.001c-0.001 0.008-0.001 0.017-0.001 0.026 0 0.243 0.197 0.441 0.441 0.441 0.009 0 0.019-0 0.028-0.001l-0.001 0c0.008 0 0.017 0.001 0.026 0.001 0.243 0 0.441-0.197 0.441-0.441 0-0.009-0-0.019-0.001-0.028l0 0.001c0-0.008 0.001-0.017 0.001-0.026 0-0.243-0.197-0.441-0.441-0.441-0.009 0-0.019 0-0.028 0.001l0.001-0z"></path>
    <path d="M0.466 5.593c-0.008-0-0.017-0.001-0.026-0.001-0.243 0-0.441 0.197-0.441 0.441 0 0.009 0 0.019 0.001 0.028l-0-0.001c-0.001 0.008-0.001 0.017-0.001 0.026 0 0.243 0.197 0.441 0.441 0.441 0.009 0 0.019-0 0.028-0.001l-0.001 0c0.008 0 0.017 0.001 0.026 0.001 0.243 0 0.441-0.197 0.441-0.441 0-0.009-0-0.019-0.001-0.028l0 0.001c0-0.008 0.001-0.017 0.001-0.026 0-0.243-0.197-0.441-0.441-0.441-0.009 0-0.019 0-0.028 0.001l0.001-0z"></path>
    <path d="M17.244 5.593c-0.008-0-0.017-0.001-0.026-0.001-0.243 0-0.441 0.197-0.441 0.441 0 0.009 0 0.019 0.001 0.028l-0-0.001c-0 0.005-0 0.011-0 0.018 0 0.258 0.209 0.466 0.466 0.466s0.466-0.209 0.466-0.466c0-0.006-0-0.012-0-0.018l0 0.001c0-0.008 0.001-0.017 0.001-0.026 0-0.243-0.197-0.441-0.441-0.441-0.009 0-0.018 0-0.027 0.001l0.001-0z"></path>
    <path d="M15.38 5.593c-0.008-0-0.017-0.001-0.026-0.001-0.243 0-0.441 0.197-0.441 0.441 0 0.009 0 0.019 0.001 0.028l-0-0.001c-0 0.005-0 0.011-0 0.018 0 0.258 0.209 0.466 0.466 0.466s0.466-0.209 0.466-0.466c0-0.006-0-0.012-0-0.018l0 0.001c0.001-0.008 0.001-0.017 0.001-0.026 0-0.243-0.197-0.441-0.441-0.441-0.009 0-0.018 0-0.027 0.001l0.001-0z"></path>
    <path d="M13.515 5.593c-0.008-0-0.017-0.001-0.026-0.001-0.243 0-0.441 0.197-0.441 0.441 0 0.009 0 0.019 0.001 0.028l-0-0.001c-0 0.005-0 0.011-0 0.018 0 0.258 0.209 0.466 0.466 0.466s0.466-0.209 0.466-0.466c0-0.006-0-0.012-0-0.018l0 0.001c0.001-0.008 0.001-0.017 0.001-0.026 0-0.243-0.197-0.441-0.441-0.441-0.009 0-0.018 0-0.027 0.001l0.001-0z"></path>
    <path d="M0.466 7.456c-0.005-0-0.011-0-0.018-0-0.258 0-0.466 0.209-0.466 0.466s0.209 0.466 0.466 0.466c0.006 0 0.012-0 0.018-0l-0.001 0c0.005 0 0.011 0 0.018 0 0.257 0 0.466-0.209 0.466-0.466s-0.209-0.466-0.466-0.466c-0.006 0-0.012 0-0.018 0l0.001-0z"></path>
    <path d="M17.244 7.456c-0.258 0-0.466 0.209-0.466 0.466s0.209 0.466 0.466 0.466c0.258 0 0.466-0.209 0.466-0.466v0c0-0.008 0.001-0.017 0.001-0.026 0-0.243-0.197-0.441-0.441-0.441-0.009 0-0.019 0-0.028 0.001l0.001-0z"></path>
    <path d="M0.466 9.321c-0.25 0.010-0.449 0.215-0.449 0.466s0.199 0.456 0.448 0.466l0.001 0c0.25-0.010 0.449-0.215 0.449-0.466s-0.199-0.456-0.448-0.466l-0.001-0z"></path>
    <path d="M17.244 9.321c-0.258 0-0.466 0.209-0.466 0.466s0.209 0.466 0.466 0.466c0.258 0 0.466-0.209 0.466-0.466v0c0-0.008 0.001-0.017 0.001-0.026 0-0.243-0.197-0.441-0.441-0.441-0.009 0-0.019 0-0.028 0.001l0.001-0z"></path>
    <path d="M0.466 11.185c-0.005-0-0.011-0-0.018-0-0.258 0-0.466 0.209-0.466 0.466s0.209 0.466 0.466 0.466c0.006 0 0.012-0 0.018-0l-0.001 0c0.005 0 0.011 0 0.018 0 0.257 0 0.466-0.209 0.466-0.466s-0.209-0.466-0.466-0.466c-0.006 0-0.012 0-0.018 0l0.001-0z"></path>
    <path d="M17.244 11.185c-0.258 0-0.466 0.209-0.466 0.466s0.209 0.466 0.466 0.466c0.258 0 0.466-0.209 0.466-0.466v0c0-0.008 0.001-0.017 0.001-0.026 0-0.243-0.197-0.441-0.441-0.441-0.009 0-0.019 0-0.028 0.001l0.001-0z"></path>
    <path d="M0.466 13.049c-0.005-0-0.011-0-0.018-0-0.258 0-0.466 0.209-0.466 0.466s0.209 0.466 0.466 0.466c0.006 0 0.012-0 0.018-0l-0.001 0c0.005 0 0.011 0 0.018 0 0.257 0 0.466-0.209 0.466-0.466s-0.209-0.466-0.466-0.466c-0.006 0-0.012 0-0.018 0l0.001-0z"></path>
    <path d="M17.244 13.049c-0.258 0-0.466 0.209-0.466 0.466s0.209 0.466 0.466 0.466c0.258 0 0.466-0.209 0.466-0.466v0c0-0.008 0.001-0.017 0.001-0.026 0-0.243-0.197-0.441-0.441-0.441-0.009 0-0.019 0-0.028 0.001l0.001-0z"></path>
    <path d="M0.466 14.913c-0.005-0-0.011-0-0.018-0-0.258 0-0.466 0.209-0.466 0.466s0.209 0.466 0.466 0.466c0.006 0 0.012-0 0.018-0l-0.001 0c0.005 0 0.011 0 0.018 0 0.257 0 0.466-0.209 0.466-0.466s-0.209-0.466-0.466-0.466c-0.006 0-0.012 0-0.018 0l0.001-0z"></path>
    <path d="M0.466 16.778c-0.005-0-0.011-0-0.018-0-0.258 0-0.466 0.209-0.466 0.466s0.209 0.466 0.466 0.466c0.006 0 0.012-0 0.018-0l-0.001 0c0.005 0 0.011 0 0.018 0 0.257 0 0.466-0.209 0.466-0.466s-0.209-0.466-0.466-0.466c-0.006 0-0.012 0-0.018 0l0.001-0z"></path>
    <path d="M0.466 18.642c-0.005-0-0.011-0-0.018-0-0.258 0-0.466 0.209-0.466 0.466s0.209 0.466 0.466 0.466c0.006 0 0.012-0 0.018-0l-0.001 0c0.005 0 0.011 0 0.018 0 0.257 0 0.466-0.209 0.466-0.466s-0.209-0.466-0.466-0.466c-0.006 0-0.012 0-0.018 0l0.001-0z"></path>
    <path d="M0.466 20.506c-0.005-0-0.011-0-0.018-0-0.258 0-0.466 0.209-0.466 0.466s0.209 0.466 0.466 0.466c0.006 0 0.012-0 0.018-0l-0.001 0c0.005 0 0.011 0 0.018 0 0.257 0 0.466-0.209 0.466-0.466s-0.209-0.466-0.466-0.466c-0.006 0-0.012 0-0.018 0l0.001-0z"></path>
    <path stroke="currentColor" fill="none" stroke-width="0.6585" stroke-miterlimit="10" stroke-linecap="butt" stroke-linejoin="round" style="stroke: var(--color4, #000)" d="M13.505 25.529v-8.829c0.016-0.63 0.522-1.136 1.15-1.152l0.001-0c0.63 0.016 1.136 0.522 1.152 1.15l0 0.001v3.458h1.539c0.013-0.001 0.029-0.001 0.045-0.001 0.4 0 0.724 0.324 0.724 0.724 0 0.016-0 0.031-0.002 0.047l0-0.002h1.536c0.013-0.001 0.029-0.001 0.045-0.001 0.4 0 0.724 0.324 0.724 0.724 0 0.016-0 0.031-0.002 0.047l0-0.002h1.152c0.63 0.016 1.136 0.522 1.152 1.15l0 0.001v2.377c0.001 0.044 0.002 0.095 0.002 0.147 0 0.689-0.113 1.351-0.321 1.97l0.013-0.043-1.228 4.377h-6.914c-1.151-1.536-4.146-6.679-4.146-6.679-0.104-0.147-0.166-0.33-0.166-0.528 0-0.241 0.092-0.46 0.244-0.625l-0.001 0.001c0.169-0.167 0.402-0.27 0.658-0.27 0.215 0 0.414 0.072 0.572 0.194l-0.002-0.002z"></path>
</svg>