<svg id="m-svg__calendar" viewBox="0 0 24 24" xmlns="http://www.w3.org/2000/svg" xmlns:xlink="http://www.w3.org/1999/xlink">
	<polygon fill="none" stroke="currentColor" stroke-linecap="round" stroke-linejoin="round" points="23.5,2.9 23.5,23.5 0.5,23.5 
		0.5,2.9 5.6,2.9 5.6,5.3 8.5,5.3 8.5,2.9 15.5,2.9 15.5,5.3 18.4,5.3 18.4,2.9 	"/>
	<polygon fill="none" stroke="currentColor" stroke-linecap="round" stroke-linejoin="round" points="23.5,2.9 23.5,8.2 0.5,8.2 0.5,2.9 
		5.6,2.9 5.6,5.3 8.5,5.3 8.5,2.9 15.5,2.9 15.5,5.3 18.4,5.3 18.4,2.9 	"/>
	<rect x="5.6" y="0.5" fill="none" stroke="currentColor" stroke-linecap="round" stroke-linejoin="round" width="2.9" height="4.8"/>
	<rect x="15.5" y="0.5" fill="none" stroke="currentColor" stroke-linecap="round" stroke-linejoin="round" width="2.9" height="4.8"/>
	<line fill="none" stroke="currentColor" stroke-linecap="round" stroke-linejoin="round" x1="4.2" y1="11.8" x2="6.4" y2="11.8"/>
	<line fill="none" stroke="currentColor" stroke-linecap="round" stroke-linejoin="round" x1="8.7" y1="11.8" x2="10.9" y2="11.8"/>
	<line fill="none" stroke="currentColor" stroke-linecap="round" stroke-linejoin="round" x1="13.1" y1="11.8" x2="15.3" y2="11.8"/>
	<line fill="none" stroke="currentColor" stroke-linecap="round" stroke-linejoin="round" x1="17.6" y1="11.8" x2="19.8" y2="11.8"/>
	<line fill="none" stroke="currentColor" stroke-linecap="round" stroke-linejoin="round" x1="4.2" y1="15.5" x2="6.4" y2="15.5"/>
	<line fill="none" stroke="currentColor" stroke-linecap="round" stroke-linejoin="round" x1="8.7" y1="15.5" x2="10.9" y2="15.5"/>
	<line fill="none" stroke="currentColor" stroke-linecap="round" stroke-linejoin="round" x1="13.1" y1="15.5" x2="15.3" y2="15.5"/>
	<line fill="none" stroke="currentColor" stroke-linecap="round" stroke-linejoin="round" x1="17.6" y1="15.5" x2="19.8" y2="15.5"/>
	<line fill="none" stroke="currentColor" stroke-linecap="round" stroke-linejoin="round" x1="4.2" y1="19.2" x2="6.4" y2="19.2"/>
	<line fill="none" stroke="currentColor" stroke-linecap="round" stroke-linejoin="round" x1="8.7" y1="19.2" x2="10.9" y2="19.2"/>
	<line fill="none" stroke="currentColor" stroke-linecap="round" stroke-linejoin="round" x1="13.1" y1="19.2" x2="15.3" y2="19.2"/>
	<line fill="none" stroke="currentColor" stroke-linecap="round" stroke-linejoin="round" x1="17.6" y1="19.2" x2="19.8" y2="19.2"/>
</svg>