<svg id="m-svg__grouping" viewBox="0 0 24 24" xmlns="http://www.w3.org/2000/svg" xmlns:xlink="http://www.w3.org/1999/xlink">
	<path fill="none" stroke="currentColor" stroke-width="0.9938" stroke-linecap="round" stroke-linejoin="round" stroke-miterlimit="10" d="
	M23,9.4H1c-0.3,0-0.5-0.2-0.5-0.5V1c0-0.3,0.2-0.5,0.5-0.5h22c0.3,0,0.5,0.2,0.5,0.5v7.9C23.5,9.2,23.3,9.4,23,9.4z"/>
	<line fill="none" stroke="currentColor" stroke-width="0.9876" stroke-linecap="round" stroke-linejoin="round" stroke-miterlimit="10" x1="5" y1="2.5" x2="5" y2="7.4"/>
	<line fill="none" stroke="currentColor" stroke-width="0.9876" stroke-linecap="round" stroke-linejoin="round" stroke-miterlimit="10" x1="2.6" y1="5" x2="7.4" y2="5"/>
	<circle fill="none" stroke="currentColor" stroke-linecap="round" stroke-linejoin="round" stroke-miterlimit="10" cx="19.2" cy="21.6" r="1.9"/>
	<circle fill="none" stroke="currentColor" stroke-linecap="round" stroke-linejoin="round" stroke-miterlimit="10" cx="19.2" cy="15.8" r="1.9"/>
	<line fill="none" stroke="currentColor" stroke-width="0.9876" stroke-linecap="round" stroke-linejoin="round" x1="5" y1="9.4" x2="5" y2="9.9"/>
	<line fill="none" stroke="currentColor" stroke-width="0.9876" stroke-linecap="round" stroke-linejoin="round" stroke-dasharray="0.9806,1.9612" x1="5" y1="11.9" x2="5" y2="19.7"/>
	<line fill="none" stroke="currentColor" stroke-width="0.9876" stroke-linecap="round" stroke-linejoin="round" x1="5" y1="20.7" x2="5" y2="21.2"/>
	<line fill="none" stroke="currentColor" stroke-linecap="round" stroke-linejoin="round" stroke-miterlimit="10" stroke-dasharray="1,2" x1="5" y1="21.6" x2="16.9" y2="21.6"/>
	<line fill="none" stroke="currentColor" stroke-linecap="round" stroke-linejoin="round" stroke-miterlimit="10" stroke-dasharray="1,2" x1="5" y1="15.8" x2="16.9" y2="15.8"/>
</svg>