<svg id="m-svg__error-system-not-available" viewBox="0 0 150 169" xmlns="http://www.w3.org/2000/svg" xmlns:xlink="http://www.w3.org/1999/xlink">
	<path fill="#FFFFFF" d="M68,110.6v0.5C68,110.9,68,110.8,68,110.6L68,110.6z"/>
	<path d="M68,110.6L68,110.6c0,0.2,0,0.3,0,0.5V110.6L68,110.6z"/>
	<path d="M130.2,48.2l1-0.2c0.2,0,0.4-0.4,0.2-0.6l-2.3-4.5c0,0,0-0.1,0-0.1l-0.5-3.1c0-0.2-0.2-0.4-0.4-0.3l-1,0.2
		c-0.2,0-0.3,0.2-0.3,0.5l0.5,3.1c0,0,0,0.1,0,0.1l2.4,4.8C129.9,48.1,130,48.2,130.2,48.2z"/>
	<path fill="#FFFFFF" d="M30,18.6c0,0.2,0,0.3,0,0.5L30,18.6L30,18.6z"/>
	<path d="M30,18.6L30,18.6l0,0.5C30,18.9,30,18.8,30,18.6L30,18.6z"/>
	<path fill="#FFFFFF" d="M111,18.6v0.5C111,18.9,111,18.8,111,18.6L111,18.6z"/>
	<path d="M111,18.6L111,18.6c0,0.2,0,0.3,0,0.5V18.6L111,18.6z"/>
	<rect x="35" y="79.6" fill="#E30513" width="71" height="68"/>
	<path d="M105,80.6v66H36v-66H105 M107,78.6H34v70h73V78.6L107,78.6z"/>
	<polygon fill="#C40622" points="106,90.6 106,100.6 35,107.6 35,90.6"/>
	<rect x="35" y="115.6" fill="#F9F9F9" width="71" height="3"/>
	<rect x="35" y="121.6" fill="#F9F9F9" width="71" height="3"/>
	<path d="M105,80.6v66H36v-66H105 M107,78.6H34v70h73V78.6L107,78.6z"/>
	<path fill="#E30513" d="M31.5,92.8c-2.5,0-4.5-2-4.5-4.5V20.7c0-0.2,0-0.3,0-0.5C27.6,9.9,47.1,1.4,70.5,1.4s42.9,8.4,43.5,18.8
		c0,0.2,0,0.3,0,0.5v67.6c0,2.5-2,4.5-4.5,4.5H31.5z"/>
	<path d="M70.5,2.4c11.4,0,22.2,2,30.3,5.6c7.5,3.3,12,7.8,12.2,12.3c0,0.1,0,0.3,0,0.4v67.6c0,1.9-1.6,3.5-3.5,3.5h-78
		c-1.9,0-3.5-1.6-3.5-3.5V20.7c0-0.1,0-0.3,0-0.4c0.3-4.5,4.7-8.9,12.2-12.3C48.3,4.4,59.1,2.4,70.5,2.4 M70.5,0.4
		C46.3,0.4,26.6,9.2,26,20.2c0,0.2,0,0.4,0,0.5v67.6c0,3,2.5,5.5,5.5,5.5h78c3,0,5.5-2.5,5.5-5.5V20.7c0-0.2,0-0.4,0-0.5
		C114.4,9.2,94.7,0.4,70.5,0.4L70.5,0.4z"/>
	<path fill="#F4F4F4" d="M39.2,64.6c-1.8,0-3.4-1-3.4-2.2V22.7c0-0.1,0-0.2,0-0.2c0.4-5.2,14.5-10.7,34.7-10.7s34.3,5.5,34.7,10.7
		c0,0.1,0,0.2,0,0.2v39.7c0,1.2-1.6,2.2-3.4,2.2H39.2z"/>
	<path d="M70.5,12.8c21.2,0,33.4,5.8,33.7,9.8c0,0.1,0,0.1,0,0.2v39.7c0,0.5-1,1.2-2.4,1.2H39.2c-1.4,0-2.4-0.7-2.4-1.2V22.7
		c0-0.1,0-0.1,0-0.2C37.1,18.6,49.3,12.8,70.5,12.8 M70.5,10.8c-19.4,0-35.2,5.2-35.7,11.6c0,0.1,0,0.2,0,0.3v39.7
		c0,1.8,2,3.2,4.4,3.2h62.6c2.4,0,4.4-1.4,4.4-3.2V22.7c0-0.1,0-0.2,0-0.3C105.7,15.9,89.9,10.8,70.5,10.8L70.5,10.8z"/>
	<path fill="#929292" d="M33,153.6v-8c0-1.1,0.9-2,2-2h71c1.1,0,2,0.9,2,2v8H33z"/>
	<path d="M106,144.6c0.6,0,1,0.4,1,1v7H34v-7c0-0.6,0.4-1,1-1H106 M106,142.6H35c-1.7,0-3,1.3-3,3v9h77v-9
		C109,143.9,107.7,142.6,106,142.6L106,142.6z"/>
	<path fill="#D7D7D7" d="M106.1,144.6H34.9c-1.1,0-1.9,0.9-1.9,1.9v0.1h75v-0.1C108,145.5,107.1,144.6,106.1,144.6z"/>
	<path d="M106,144.6c0.6,0,1,0.4,1,1v7H34v-7c0-0.6,0.4-1,1-1H106 M106,142.6H35c-1.7,0-3,1.3-3,3v9h77v-9
		C109,143.9,107.7,142.6,106,142.6L106,142.6z"/>
	<rect x="54" y="21.6" fill="#3D3D3D" width="4.7" height="9"/>
	<rect x="61.1" y="21.6" fill="#3D3D3D" width="4.7" height="9"/>
	<rect x="68.1" y="21.6" fill="#3D3D3D" width="4.7" height="9"/>
	<rect x="75.2" y="21.6" fill="#3D3D3D" width="4.7" height="9"/>
	<rect x="82.3" y="21.6" fill="#3D3D3D" width="4.7" height="9"/>
	<path d="M127.2,124.8c0.2,0,0.5,0,0.7,0c5.6-0.4,11.4-5.6,11.2-14.3c-0.2-8.5-3.4-15.8-6.7-23.5c-3.8-8.8-2.8-18.5-2.8-30.4
		h-3.2c0,12.6-0.9,22.6,3.1,31.7c3.2,7.4,6.2,14.5,6.4,22.3c0.2,6.7-4.1,10.7-8.2,11c-3.3,0.3-6.9-1.8-7.7-8.4
		c-1.3-10,0-17.8,1-23.4c0.6-3.7,1.1-6.4,0.6-8.5c-1.1-4.6-4.7-5.8-6.5-5.8v3.2c0.3,0,2.7,0.2,3.4,3.4c0.3,1.5-0.1,4-0.6,7.3
		c-1,5.8-2.3,13.8-1,24.3C117.9,121.9,122.9,124.8,127.2,124.8z"/>
	<path fill="#696969" d="M124.4,62.3v-1.8h1.1c0.4,0,0.8-0.3,0.8-0.8v-0.8h2.5v0.8c0,0.4,0.3,0.8,0.8,0.8h1.1v1.8H124.4z"/>
	<path d="M128,59.7L128,59.7c0,0.9,0.7,1.6,1.5,1.6h0.4v0.3h-4.7v-0.3h0.4c0.8,0,1.5-0.7,1.5-1.5v-0.1H128 M129.5,58.2h-4v1.6
		h-1.9v3.3h7.7v-3.3h-1.9V58.2L129.5,58.2z"/>
	<rect x="124.4" y="57.2" width="6.1" height="1.3"/>
	<path d="M129.9,57.8L129.9,57.8l-4.9,0v0H129.9 M131.2,56.5h-7.4v2.6h7.4V56.5L131.2,56.5z"/>
	<path fill="#D7D7D7" d="M128,24.2l9.4-15.7c0.1-0.2,0.3-0.2,0.4-0.2c0.1,0,0.2,0,0.3,0.1l2.7,1.6c0.1,0.1,0.2,0.2,0.2,0.3
		c0,0.1,0,0.3-0.1,0.4l-9.4,15.7L128,24.2z"/>
	<path d="M138,8.8L138,8.8L138,8.8 M137.9,9.1l2.3,1.3l-8.9,14.9l-2.3-1.3L137.9,9.1 M137.8,7.5c-0.4,0-0.8,0.2-1.1,0.6L127,24.5
		l4.8,2.9l9.8-16.4c0.4-0.6,0.2-1.4-0.4-1.7l-2.7-1.6C138.2,7.5,138,7.5,137.8,7.5L137.8,7.5z"/>
	<path fill="#E30513" d="M120.7,56.5c-0.8,0-1.4-0.6-1.4-1.4V32.6c0-0.4,0.2-0.7,0.4-1l8.4-8.1c0.1-0.1,0.2-0.1,0.4-0.1
		c0.1,0,0.2,0,0.3,0.1l3.5,2c0.2,0.1,0.3,0.3,0.2,0.6l-0.4,1.9c-0.1,0.3,0,0.5,0.2,0.7l3,3c0.3,0.3,0.4,0.6,0.4,1v22.5
		c0,0.8-0.6,1.4-1.4,1.4H120.7z M127.2,39.9c-1.2,0-2.2,1-2.2,2.3V50c0,1.1,0.8,2,1.8,2.2l3.6,0.7c0.1,0,0.3,0,0.5,0
		c1.2,0,2.3-1,2.3-2.3v-7.7c0-1-0.7-1.9-1.7-2.2l-3.6-0.9C127.5,39.9,127.4,39.9,127.2,39.9z"/>
	<path d="M128.6,24.2l3.2,1.9l-0.4,1.7c-0.1,0.5,0,1,0.4,1.4l3,3c0.1,0.1,0.2,0.3,0.2,0.4v22.5c0,0.3-0.3,0.6-0.6,0.6h-13.6
		c-0.3,0-0.6-0.3-0.6-0.6V32.6c0-0.2,0.1-0.3,0.2-0.4L128.6,24.2 M130.8,53.7c1.7,0,3-1.4,3-3v-7.7c0-1.4-0.9-2.6-2.3-2.9
		l-3.6-0.9c-0.2-0.1-0.5-0.1-0.7-0.1c-1.7,0-3,1.3-3,3V50c0,1.4,1,2.7,2.4,3l3.6,0.7C130.4,53.7,130.6,53.7,130.8,53.7
			M128.5,22.7c-0.3,0-0.6,0.1-0.9,0.4l-8.4,8.1c-0.4,0.4-0.7,1-0.7,1.5v22.5c0,1.2,1,2.1,2.1,2.1h13.6c1.2,0,2.1-1,2.1-2.1V32.6
		c0-0.6-0.2-1.1-0.6-1.5l-3-3l0.4-1.9c0.1-0.5-0.1-1.1-0.6-1.4l-3.5-2C129,22.7,128.8,22.7,128.5,22.7L128.5,22.7z M130.8,52.2
		c-0.1,0-0.2,0-0.3,0l-3.6-0.7c-0.7-0.1-1.2-0.8-1.2-1.5v-7.8c0-0.9,0.7-1.5,1.5-1.5c0.1,0,0.3,0,0.4,0l3.6,0.9
		c0.7,0.2,1.1,0.8,1.1,1.5v7.7C132.3,51.6,131.6,52.2,130.8,52.2L130.8,52.2z"/>
	<rect x="61.1" y="34.6" fill="#3D3D3D" width="4.7" height="9"/>
	<rect x="68.1" y="34.6" fill="#3D3D3D" width="4.7" height="9"/>
	<rect x="75.2" y="34.6" fill="#3D3D3D" width="4.7" height="9"/>
	<rect x="59.5" y="50.6" fill="#929292" width="22" height="1"/>
	<rect x="62" y="52.6" fill="#929292" width="17" height="1"/>
	<rect x="62" y="56.6" fill="#929292" width="17" height="1"/>
	<rect x="64" y="54.6" fill="#929292" width="13" height="1"/>
	<path d="M128.6,24.2l3.2,1.9l-0.4,1.7c-0.1,0.5,0,1,0.4,1.4l3,3c0.1,0.1,0.2,0.3,0.2,0.4v22.5c0,0.3-0.3,0.6-0.6,0.6h-13.6
		c-0.3,0-0.6-0.3-0.6-0.6V32.6c0-0.2,0.1-0.3,0.2-0.4L128.6,24.2 M130.8,53.7c1.7,0,3-1.4,3-3v-7.7c0-1.4-0.9-2.6-2.3-2.9
		l-3.6-0.9c-0.2-0.1-0.5-0.1-0.7-0.1c-1.7,0-3,1.3-3,3V50c0,1.4,1,2.7,2.4,3l3.6,0.7C130.4,53.7,130.6,53.7,130.8,53.7
			M128.5,22.7c-0.3,0-0.6,0.1-0.9,0.4l-8.4,8.1c-0.4,0.4-0.7,1-0.7,1.5v22.5c0,1.2,1,2.1,2.1,2.1h13.6c1.2,0,2.1-1,2.1-2.1V32.6
		c0-0.6-0.2-1.1-0.6-1.5l-3-3l0.4-1.9c0.1-0.5-0.1-1.1-0.6-1.4l-3.5-2C129,22.7,128.8,22.7,128.5,22.7L128.5,22.7z M130.8,52.2
		c-0.1,0-0.2,0-0.3,0l-3.6-0.7c-0.7-0.1-1.2-0.8-1.2-1.5v-7.8c0-0.9,0.7-1.5,1.5-1.5c0.1,0,0.3,0,0.4,0l3.6,0.9
		c0.7,0.2,1.1,0.8,1.1,1.5v7.7C132.3,51.6,131.6,52.2,130.8,52.2L130.8,52.2z"/>
	<path opacity="0.65" fill="#FFFFFF" d="M38.5,23.1v27.5l39-35.5c-31-2-39.1,8.3-39.1,8.3"/>
	<ellipse opacity="0.5" fill="#D7D7D7" cx="75" cy="166.1" rx="75" ry="2.5"/>
</svg>