<svg id="m-svg__file-rm" viewBox="0 0 24 24" data-badge-origin="25.5,20" xmlns="http://www.w3.org/2000/svg" xmlns:xlink="http://www.w3.org/1999/xlink">
	<path fill="none" stroke="currentColor" stroke-miterlimit="10" d="M17.6,7l-0.8,2.8c0,0-2.8-1.5-4.3,1.4l-1,3.4H7.2l2.5-8.5h4.2
		l-0.5,1.5C14.2,7.1,15.7,5.7,17.6,7z"/>
	<path fill="none" stroke="currentColor" stroke-linecap="round" stroke-linejoin="round" stroke-miterlimit="10" d="M23.5,10.5
		c0,2-1,3.9-2.6,5.4l0,0l-7.9,7.5l1.3-4.6c-0.7,0.1-1.5,0.2-2.3,0.2c-6.3,0-11.5-3.8-11.5-8.5C0.5,5.8,5.6,2,12,2
		C18.3,2,23.5,5.8,23.5,10.5z"/>
</svg>