<svg id="m-svg__error-javascript-disabled" viewBox="0 0 150 163" xmlns="http://www.w3.org/2000/svg" xmlns:xlink="http://www.w3.org/1999/xlink">
	<path fill="#ECEAE9" stroke="#000000" stroke-width="2" stroke-miterlimit="10" d="M116,65c-16,0-29,13-29,29c0,16,13,29,29,29
		s29-13,29-29C145,78,132,65,116,65z M116,113c-10.5,0-19-8.5-19-19s8.5-19,19-19s19,8.5,19,19S126.5,113,116,113z"/>
	<path fill="#ECEAE9" stroke="#000000" stroke-width="2" stroke-miterlimit="10" d="M104.8,141H34.2c-6.2,0-11.3-5-11.3-11.3V55.5
		c0-2.5,2-4.5,4.5-4.5h84.1c2.5,0,4.5,2,4.5,4.5v74.2C116.1,136,111,141,104.8,141z"/>
	<path fill="#F39612" stroke="#000000" stroke-width="2" stroke-miterlimit="10" d="M116.1,65H22.9v-9.4c0-2.5,2.1-4.6,4.6-4.6h84
		c2.5,0,4.6,2.1,4.6,4.6V65z"/>
	<rect x="35" y="141" fill="#ECEAE9" stroke="#000000" stroke-width="2" stroke-linecap="round" stroke-linejoin="round" stroke-miterlimit="10" width="69" height="10"/>
	<rect x="36" y="142" fill="#929292" width="67" height="8"/>
	<rect x="36" y="142" fill="#696969" width="67" height="3"/>
	<path opacity="0.6" fill="#FFFFFF" d="M57,141H32.3c-1.8,0-3.3-1.5-3.3-3.3V51h28V141z"/>
	<path fill="none" stroke="#000000" stroke-width="2" stroke-miterlimit="10" d="M116.1,65H22.9v-9.4c0-2.5,2.1-4.6,4.6-4.6h84
		c2.5,0,4.6,2.1,4.6,4.6V65z"/>
	<path fill="none" stroke="#000000" stroke-width="2" stroke-miterlimit="10" d="M104.8,141H34.2c-6.2,0-11.3-5-11.3-11.3V55.5
		c0-2.5,2-4.5,4.5-4.5h84.1c2.5,0,4.5,2,4.5,4.5v74.2C116.1,136,111,141,104.8,141z"/>
	<path fill="#BC704A" stroke="#000000" stroke-width="2" stroke-linecap="round" stroke-linejoin="round" stroke-miterlimit="10" d="
		M69.5,1.7c0,0,4.4,9.5-6.8,20.4s0,21.1,0,21.1s-1.7-8.5,7.8-11.9C80.2,27.8,82.1,16,69.5,1.7z"/>
	<path fill="#BC704A" stroke="#000000" stroke-width="2" stroke-linecap="round" stroke-linejoin="round" stroke-miterlimit="10" d="
		M84.7,18.8c0,0,3.1,5.6-3.2,12.7c-6.4,7.1,0.9,12.8,0.9,12.8s-1.4-5.1,4.2-7.6C92.3,34.3,93,26.9,84.7,18.8z"/>
	<path fill="#BC704A" stroke="#000000" stroke-width="2" stroke-linecap="round" stroke-linejoin="round" stroke-miterlimit="10" d="
		M51.3,33.1c0,0-3-5.7,3.5-12.7S54.3,7.6,54.3,7.6s1.3,5.1-4.4,7.5C44.1,17.5,43.2,24.8,51.3,33.1z"/>
	<ellipse opacity="0.5" fill="#D7D7D7" cx="75" cy="160.5" rx="75" ry="2.5"/>
</svg>