<svg id="m-svg__file-pdf" viewBox="0 0 24 24" data-badge-origin="20.5,23.5" xmlns="http://www.w3.org/2000/svg" xmlns:xlink="http://www.w3.org/1999/xlink">
    <path fill="#FB3449" d="M9.5,20.1c0,0.2-0.1,0.7-0.9,0.7H8.2v-1.4h0.5C9.3,19.4,9.5,19.8,9.5,20.1z"/>
    <path fill="#FB3449" d="M11.9,19.4h-0.3v2.9h0.3c0.3,0,0.5-0.1,0.6-0.4c0.2-0.3,0.3-0.6,0.3-1.1C12.7,20.2,12.5,19.4,11.9,19.4z
        M11.9,19.4h-0.3v2.9h0.3c0.3,0,0.5-0.1,0.6-0.4c0.2-0.3,0.3-0.6,0.3-1.1C12.7,20.2,12.5,19.4,11.9,19.4z M11.9,19.4h-0.3v2.9h0.3
        c0.3,0,0.5-0.1,0.6-0.4c0.2-0.3,0.3-0.6,0.3-1.1C12.7,20.2,12.5,19.4,11.9,19.4z M11.9,19.4h-0.3v2.9h0.3c0.3,0,0.5-0.1,0.6-0.4
        c0.2-0.3,0.3-0.6,0.3-1.1C12.7,20.2,12.5,19.4,11.9,19.4z M3.8,17.7v5.4h16.3v-5.4H3.8z M8.7,21.5H8.2v1.1c0,0.2-0.1,0.3-0.3,0.3
        s-0.3-0.2-0.3-0.3v-3.5c0-0.2,0.2-0.3,0.3-0.3h0.8c1.1,0,1.5,0.7,1.5,1.4C10.2,20.8,9.7,21.5,8.7,21.5z M13.1,22.3
        c-0.3,0.4-0.7,0.7-1.2,0.7h-0.6c-0.1,0-0.2,0-0.2-0.1c-0.1-0.1-0.1-0.2-0.1-0.2v-3.5c0-0.2,0.1-0.3,0.3-0.3h0.6
        c0.9,0,1.5,0.8,1.5,2.1C13.4,21.4,13.3,21.9,13.1,22.3z M16.2,19.4l-1.2,0v1.4l0.8,0c0.2,0,0.3,0.1,0.3,0.3s-0.2,0.3-0.3,0.3H15
        v1.2c0,0.2-0.1,0.3-0.3,0.3s-0.3-0.1-0.3-0.3v-1.5l0-2c0-0.2,0.2-0.3,0.3-0.3h1.5c0.2,0,0.3,0.2,0.3,0.3
        C16.5,19.3,16.3,19.4,16.2,19.4z M11.9,19.4h-0.3v2.9h0.3c0.3,0,0.5-0.1,0.6-0.4c0.2-0.3,0.3-0.6,0.3-1.1
        C12.7,20.2,12.5,19.4,11.9,19.4z M11.9,19.4h-0.3v2.9h0.3c0.3,0,0.5-0.1,0.6-0.4c0.2-0.3,0.3-0.6,0.3-1.1
        C12.7,20.2,12.5,19.4,11.9,19.4z M11.9,19.4h-0.3v2.9h0.3c0.3,0,0.5-0.1,0.6-0.4c0.2-0.3,0.3-0.6,0.3-1.1
        C12.7,20.2,12.5,19.4,11.9,19.4z M11.9,19.4h-0.3v2.9h0.3c0.3,0,0.5-0.1,0.6-0.4c0.2-0.3,0.3-0.6,0.3-1.1
        C12.7,20.2,12.5,19.4,11.9,19.4z M11.9,19.4h-0.3v2.9h0.3c0.3,0,0.5-0.1,0.6-0.4c0.2-0.3,0.3-0.6,0.3-1.1
        C12.7,20.2,12.5,19.4,11.9,19.4z"/>
    <path fill="none" stroke="#FB3449" stroke-linecap="round" stroke-linejoin="round" stroke-miterlimit="10" d="M20.5,5.5V23
        c0,0.3-0.2,0.5-0.5,0.5H4c-0.3,0-0.5-0.2-0.5-0.5V1c0-0.3,0.2-0.5,0.5-0.5h11.5v5H20.5z"/>
    <polygon fill="none" stroke="#FB3449" stroke-linecap="round" stroke-linejoin="round" stroke-miterlimit="10" points="15.5,0.5
        15.5,5.5 20.5,5.5 		"/>
    <path fill="#FFFFFF" d="M14.3,21.1L14.3,21.1C14.3,21.1,14.3,21.1,14.3,21.1C14.3,21.1,14.3,21.1,14.3,21.1z"/>
    <path fill="none" stroke="#FB3449" stroke-linecap="round" stroke-linejoin="round" stroke-miterlimit="10" d="M7.5,4.9
        c-0.7-1.1,1-2.2,1.4-1c0.7,2,1.9,7.5-0.8,11.2c-0.8,1-2.4,0.1-1.5-1c1.4-1.7,5.2-4.9,10.2-4.7c1.4,0.1,1.3,2,0.1,1.8
        C15,10.9,10.6,9.9,7.5,4.9z"/>
</svg>