<svg id="m-svg__mountain" viewBox="0 0 24 24" xmlns="http://www.w3.org/2000/svg" xmlns:xlink="http://www.w3.org/1999/xlink">
  <path d="M23.9,22.88H.1A.11.11,0,0,1,0,22.72l4.37-7.56a.74.74,0,0,1,1.28,0l2.47,4.28,6.33-11a.74.74,0,0,1,1.28,0L24,22.72A.11.11,0,0,1,23.9,22.88Z"/>
  <path d="M11.12,4.83a1.45,1.45,0,0,1-1.3,1.45H3.33a2,2,0,0,1,0-4.06A1.7,1.7,0,0,1,4,2.37a3,3,0,0,1,5.78,1v0A1.46,1.46,0,0,1,11.12,4.83Z" fill="none" stroke="currentColor" stroke-miterlimit="10" stroke-width="0.73"/>
</svg>
