<svg id="m-svg__profile" viewBox="0 0 24 24" xmlns="http://www.w3.org/2000/svg" xmlns:xlink="http://www.w3.org/1999/xlink">
	<path fill="none" stroke="currentColor" stroke-linejoin="round" stroke-miterlimit="10" d="M20,20.3c-2.1,2-4.9,3.2-8,3.2
		c-3,0-5.7-1.1-7.7-3C5,20,5.7,19.7,5.7,19.7l4.9-1.6v-1.7c-0.9-0.7-1.5-1.9-1.6-3.3h0c-0.6,0-1.1-0.6-1.1-1.4
		c0-0.8,0.5-1.4,1.1-1.4c0,0,0,0,0,0C8.4,10,8,9.6,7.6,9.1C6,7,5.9,4.5,7.4,3.3c1.5-1.2,1.6,2.9,4.8,1.2c0.3-0.2,1,0.8,1.1,1h0.1
		c1.5,0,2.6,1.2,2.6,2.6V9c0,0.5-0.1,0.9-0.3,1.3v0c0.6,0,1.1,0.6,1.1,1.4s-0.5,1.4-1.1,1.4h0c-0.1,1.4-0.8,2.6-1.6,3.3v1.7l4.9,1.6
		C18.9,19.7,19.4,19.9,20,20.3z"/>
	<path fill="none" stroke="currentColor" stroke-linejoin="round" stroke-miterlimit="10" d="M23.5,12c0,3.3-1.4,6.2-3.5,8.3
		c-2.1,2-4.9,3.2-8,3.2c-3,0-5.7-1.1-7.7-3C2,18.4,0.5,15.4,0.5,12C0.5,5.7,5.6,0.5,12,0.5C18.4,0.5,23.5,5.7,23.5,12z"/>
</svg>