<svg id="m-svg__new" viewBox="0 0 24 24" xmlns="http://www.w3.org/2000/svg" xmlns:xlink="http://www.w3.org/1999/xlink">
<g fill="currentColor">
	<path d="M5.9,6.5C6,6.6,6,6.6,6.1,6.6s0.1,0,0.1-0.1c0.1-0.1,0.2-0.2,0.2-0.3L6.3,4c0-0.1-0.1-0.2-0.1-0.2C6.1,3.8,6,3.8,5.9,3.8
		L4.2,4.6C4.1,4.6,4,4.7,4,4.8C4,4.9,4,5,4.1,5L5.9,6.5L5.9,6.5z M5.7,4.5l0.1,1.2L4.9,4.9L5.7,4.5z"/>
	<path d="M11.9,4.7c0.1,0,0.1,0,0.2-0.1l3.7-2.5C15.8,2.1,15.9,2,15.9,2c0-0.1-0.1-0.2-0.2-0.2L12.4,0C12.4,0,12.3,0,12.2,0
		C12.1,0.1,12,0.2,12,0.3l-0.4,4.2c0,0.1,0.1,0.2,0.1,0.3C11.8,4.7,11.9,4.7,11.9,4.7L11.9,4.7z M12.6,0.7L15.1,2l-2.9,1.9
		C12.3,3.9,12.6,0.7,12.6,0.7z"/>
	<path d="M9.5,3.5c0.1,0,0.1,0.1,0.2,0.1s0.2,0,0.3-0.1c0.1-0.1,0.3-0.2,0.3-0.3c0.1-0.2,0.1-0.3-0.1-0.4C10.2,2.6,10,2.5,9.9,2.5
		C9.6,2.3,9.2,2.5,9.1,2.8C9.1,3,9.1,3.2,9.2,3.3C9.2,3.4,9.3,3.5,9.5,3.5L9.5,3.5z"/>
	<path d="M14.6,8.6c-0.1-0.1-0.2-0.2-0.3-0.2h-1.5l-0.6-1.5c-0.1-0.2-0.4-0.2-0.5,0l-0.6,1.5H9.7c-0.1,0-0.2,0.1-0.3,0.2
		s0,0.2,0.1,0.3l1.2,1l-0.4,1.6c-0.1,0.1,0,0.2,0.1,0.3c0.1,0.1,0.2,0.1,0.3,0l1.4-1l1.4,1c0.1,0.1,0.1,0.1,0.2,0.1s0.1,0,0.2-0.1
		s0.2-0.2,0.1-0.3L13.4,10l1.2-1C14.7,8.9,14.7,8.8,14.6,8.6L14.6,8.6z M12.9,9.7c-0.1,0.1-0.1,0.2-0.1,0.3l0.3,1l-0.9-0.7
		c-0.1-0.1-0.1-0.1-0.2-0.1c-0.1,0-0.1,0-0.2,0.1L10.9,11l0.3-1c0.1-0.1,0-0.2-0.1-0.3L10.3,9h1c0.1,0,0.2-0.1,0.3-0.2l0.4-1l0.4,1
		C12.5,8.9,12.6,9,12.7,9h0.9L12.9,9.7L12.9,9.7z"/>
	<path d="M14.6,11.7c-0.1,0.2,0.1,0.3,0.2,0.3c0.1,0,0.1,0,0.1,0c0.1,0,0.2-0.1,0.3-0.2c0.5-1.6,2.2-2.5,3.9-1.9
		c0.2,0.1,0.3-0.1,0.3-0.2c0.1-0.2-0.1-0.3-0.2-0.3C17.3,8.8,15.3,9.9,14.6,11.7L14.6,11.7z"/>
	<path d="M6.7,7.7c0.8,0.3,1.4,0.8,1.8,1.5c0.4,0.7,0.4,1.5,0.2,2.4c-0.1,0.2,0.1,0.3,0.2,0.3c0.1,0,0.1,0,0.1,0
		c0.1,0,0.2-0.1,0.3-0.2C9.5,10.8,9.4,9.8,9,9C8.5,8.1,7.8,7.5,6.9,7.2C6.7,7.1,6.6,7.2,6.6,7.3C6.5,7.5,6.6,7.7,6.7,7.7L6.7,7.7z"
		/>
	<path d="M13.5,7.3c0.2,0,0.3-0.1,0.3-0.3L14,4.6c0-0.2-0.1-0.3-0.3-0.3s-0.3,0.1-0.3,0.3l-0.2,2.5C13.2,7.2,13.3,7.3,13.5,7.3
		L13.5,7.3z"/>
	<path d="M10,4.4l0.7,2.4C10.8,6.9,10.9,7,11,7h0.1c0.2-0.1,0.2-0.2,0.2-0.3l-0.7-2.4c-0.1-0.2-0.2-0.2-0.3-0.2
		C10.1,4.1,10,4.3,10,4.4L10,4.4z"/>
	<path d="M15.7,6.9c-0.1,0.3,0.1,0.7,0.4,0.8c0.1,0,0.1,0.1,0.2,0.1c0.3,0,0.5-0.2,0.6-0.4l0,0c0.1-0.3-0.1-0.7-0.4-0.8
		C16.2,6.4,15.8,6.6,15.7,6.9L15.7,6.9z"/>
	<path d="M15.2,10c0.1,0,0.1,0,0.1,0c0.1,0,0.2-0.1,0.3-0.2c0.1-0.2,0-0.3-0.2-0.4l-0.2-0.1c-0.2-0.1-0.3,0-0.4,0.2
		c-0.1,0.2,0,0.3,0.2,0.4L15.2,10z"/>
	<path d="M8.4,7.3l0.7-0.3l1.4,0.8c0.1,0,0.1,0.1,0.1,0.1c0.1,0,0.2-0.1,0.2-0.2c0.1-0.1,0-0.3-0.1-0.4L9.2,6.5C9.1,6.5,9,6.5,9,6.5
		L8.1,6.8C8,6.9,7.9,7.1,8,7.2C8.1,7.3,8.3,7.4,8.4,7.3L8.4,7.3z"/>
	<path d="M23.1,13L20,11.6v-0.1c0,0,0,0,0-0.1L20,11.4l0,0l0,0l0,0l-2.6-1.2c-0.2-0.1-0.3,0-0.4,0.2c-0.1,0.2,0,0.3,0.2,0.4l2,0.9
		l-6.7,3.1L5,11.7l3.2-1.4c0.2-0.1,0.2-0.2,0.2-0.4S8.1,9.7,8,9.8l-3,1.3l0,0l-0.7,0.3l-2.5-1.2l4.3-1.9c0.2-0.1,0.2-0.2,0.2-0.4
		C6.2,7.8,6.1,7.7,5.9,7.8L1.1,9.9C1,10,0.9,10.1,0.9,10.2s0.1,0.2,0.2,0.3l3,1.4v8.6c0,0.1,0.1,0.2,0.2,0.3l8.1,3.3
		c0.1,0,0.1,0,0.1,0c0.1,0,0.1,0,0.1,0l7.4-3.3c0.1-0.1,0.2-0.2,0.2-0.3V15l3.1-1.5c0.1-0.1,0.2-0.2,0.2-0.3S23.2,13,23.1,13
		L23.1,13z M12.1,23.4l-7.5-3.1v-8.2l7.5,3.1V23.4L12.1,23.4z M19.6,20.3l-6.9,3.1v-7.8l3.1,1.5c0.1,0,0.1,0.1,0.1,0.1l0,0
		c0.1,0,0.1,0,0.1-0.1l3.5-1.8L19.6,20.3L19.6,20.3z M19.7,14.6L19.7,14.6l-3.8,1.9l-2.7-1.4l6.5-3.1l2.7,1.2L19.7,14.6L19.7,14.6z"
		/>
	<path d="M20,9.8c0,0.1,0.1,0.1,0.2,0.2c0.1,0,0.1,0,0.1,0s0.1,0,0.1,0L22,9.4c0.1,0,0.1-0.1,0.2-0.2c0.1-0.1,0.1-0.2,0-0.2
		l-0.5-1.4c-0.1-0.2-0.2-0.2-0.3-0.2L19.7,8c-0.2,0.1-0.2,0.2-0.2,0.3L20,9.8L20,9.8z M21.1,8L21.4,9l-1,0.4L20,8.4L21.1,8z"/>
</g>
</svg>
