
<svg id="s-svg__building-3" xmlns="http://www.w3.org/2000/svg" viewBox="0 0 24 24">
  <path fill="currentColor" d="M23.5 23H23v-9.5a.5.5 0 0 0-.5-.5H20v-.5a.5.5 0 0 0-1 0v.5h-.5a.5.5 0 0 0-.5.5V23h-1V4.5a.5.5 0 0 0-.5-.5H14V2.5a.5.5 0 0 0-.5-.5H13V.5a.5.5 0 0 0-1 0V2h-1.5a.5.5 0 0 0-.5.5V4H7.5a.5.5 0 0 0-.5.5V23H6v-9.5a.5.5 0 0 0-.5-.5H5v-.5a.5.5 0 0 0-1 0v.5H1.5a.5.5 0 0 0-.5.5V23H.5a.5.5 0 0 0 0 1h23a.5.5 0 0 0 0-1zM11 3h2v1h-2V3zM2 23v-9h3v9H2zm6 0V5h8v18H8zm11 0v-9h3v9h-3z"/>
  <path fill="currentColor" d="M14.5 7h-5a.5.5 0 0 0 0 1h5a.5.5 0 0 0 0-1zM14.5 10h-5a.5.5 0 0 0 0 1h5a.5.5 0 0 0 0-1zM14.5 13h-5a.5.5 0 0 0 0 1h5a.5.5 0 0 0 0-1zM14.5 16h-5a.5.5 0 0 0 0 1h5a.5.5 0 0 0 0-1zM14.5 19h-5a.5.5 0 0 0 0 1h5a.5.5 0 0 0 0-1z"/>
</svg>