<svg id="s-svg__cog-filled" xmlns="http://www.w3.org/2000/svg" viewBox="0 0 24 24">
  <path fill="currentColor" d="M23.5 10h-2.855c-.199-.79-.454-1.667-.777-2.332L21.9 5.636a.5.5 0 0 0 0-.708l-2.83-2.826a.499.499 0 0 0-.707 0L16.33 4.133c-.664-.323-1.541-.578-2.33-.777V.5a.5.5 0 0 0-.5-.5h-3a.5.5 0 0 0-.5.5v2.856c-.79.199-1.667.454-2.331.777L5.636 2.102a.499.499 0 0 0-.707 0L2.1 4.929a.5.5 0 0 0 0 .707L4.133 7.67c-.322.662-.578 1.54-.779 2.33H.5a.5.5 0 0 0-.5.5v3a.5.5 0 0 0 .5.5h2.854c.201.791.456 1.668.778 2.332L2.1 18.365a.504.504 0 0 0 0 .707L4.929 21.9c.188.188.52.187.707 0l2.032-2.034c.664.324 1.541.579 2.332.78V23.5a.5.5 0 0 0 .5.5h3a.5.5 0 0 0 .5-.5v-2.854c.791-.201 1.668-.456 2.33-.778l2.034 2.032a.5.5 0 0 0 .707 0l2.828-2.828a.5.5 0 0 0 0-.707l-2.032-2.033c.322-.663.578-1.541.778-2.332H23.5a.5.5 0 0 0 .5-.5v-3a.5.5 0 0 0-.5-.5zm-.5 3h-2.746a.5.5 0 0 0-.486.382c-.135.558-.494 2.041-.945 2.778a.5.5 0 0 0 .073.614l1.942 1.943-2.121 2.121-1.944-1.942a.498.498 0 0 0-.614-.073c-.737.451-2.219.81-2.777.945a.5.5 0 0 0-.382.486V23h-2v-2.746a.5.5 0 0 0-.382-.486c-.558-.135-2.04-.494-2.778-.945a.499.499 0 0 0-.615.072l-1.942 1.944-2.123-2.121 1.943-1.943a.5.5 0 0 0 .073-.614c-.451-.737-.81-2.22-.945-2.778A.499.499 0 0 0 3.746 13H1v-2h2.746a.5.5 0 0 0 .486-.382c.135-.558.494-2.04.945-2.777a.502.502 0 0 0-.073-.615L3.16 5.283l2.122-2.122 1.943 1.942a.5.5 0 0 0 .614.073c.742-.453 2.221-.809 2.778-.943A.498.498 0 0 0 11 3.748V1h2v2.748a.5.5 0 0 0 .383.486c.874.21 2.111.537 2.777.943.195.12.449.09.614-.073l1.943-1.942 2.122 2.122-1.942 1.942a.5.5 0 0 0-.073.613c.453.743.81 2.222.944 2.779a.498.498 0 0 0 .485.382H23v2z"/>
  <path fill="currentColor" d="M12 7c-2.757 0-5 2.243-5 5s2.243 5 5 5 5-2.243 5-5-2.243-5-5-5zm0 9c-2.206 0-4-1.794-4-4s1.794-4 4-4 4 1.794 4 4-1.794 4-4 4z"/>
</svg>