<svg id="s-svg__graph-line-2" xmlns="http://www.w3.org/2000/svg" viewBox="0 0 24 24">
  <path fill="currentColor" d="M22 14.312c1.103 0 2-.897 2-2s-.897-2-2-2-2 .897-2 2c0 .188.034.366.083.539l-3.533 2.061a1.994 1.994 0 0 0-1.425-.6c-.929 0-1.705.64-1.929 1.5H9.647c-.224-.86-1-1.5-1.929-1.5-1.103 0-2 .897-2 2 0 .201.039.391.094.574L1 20.054v-7.991l6.106-3.704c.361.352.852.571 1.394.571.709 0 1.329-.374 1.685-.932l3.944 1.273c0 .014-.004.027-.004.041 0 1.103.897 2 2 2s2-.897 2-2c0-.459-.162-.878-.424-1.216l3.4-4.319c.272.138.575.223.899.223 1.103 0 2-.897 2-2s-.897-2-2-2-2 .897-2 2c0 .416.128.802.346 1.122l-3.43 4.355a1.985 1.985 0 0 0-.791-.165c-.736 0-1.373.404-1.721.998l-3.916-1.264c.002-.039.012-.076.012-.116 0-1.103-.897-2-2-2s-2 .897-2 2c0 .2.038.389.093.571L1 10.893V.812a.5.5 0 0 0-1 0v22.5a.5.5 0 0 0 .5.5H23a.5.5 0 0 0 0-1H1V21.25l5.327-3.506a1.989 1.989 0 0 0 3.321-.932h3.549c.224.86 1 1.5 1.929 1.5 1.103 0 2-.897 2-2 0-.185-.033-.361-.081-.531l3.537-2.062c.361.366.863.593 1.418.593zM22 1a1.001 1.001 0 1 1-1 1c0-.551.448-1 1-1zm-5.875 7.312a1.001 1.001 0 1 1-1 1c0-.551.448-1 1-1zM8.5 5.93a1.001 1.001 0 1 1-1 1c0-.551.448-1 1-1zm-.781 11.382a1.001 1.001 0 0 1 0-2 1.001 1.001 0 0 1 0 2zm7.406 0a1.001 1.001 0 0 1 0-2 1.001 1.001 0 0 1 0 2zm6.875-6a1.001 1.001 0 1 1-1 1c0-.551.448-1 1-1z"/>
</svg>