<svg id="s-svg__graph-line-2--filled" xmlns="http://www.w3.org/2000/svg" viewBox="0 0 24 24">
  <path fill="currentColor" d="M22 14.5c1.103 0 2-.897 2-2s-.897-2-2-2-2 .897-2 2c0 .188.034.367.083.54L16.55 15.1a1.994 1.994 0 0 0-1.425-.6c-.929 0-1.705.64-1.929 1.5H9.647c-.224-.86-1-1.5-1.929-1.5-1.103 0-2 .897-2 2 0 .201.039.391.094.573L1 20.236v-7.985l6.106-3.704a1.989 1.989 0 0 0 3.079-.362l3.944 1.273c0 .014-.004.027-.004.041 0 1.103.897 2 2 2s2-.897 2-2c0-.459-.162-.878-.424-1.216l3.4-4.319c.272.139.575.224.899.224 1.103 0 2-.897 2-2s-.897-2-2-2-2 .897-2 2c0 .415.128.802.346 1.122l-3.43 4.355a1.985 1.985 0 0 0-.791-.165c-.736 0-1.373.404-1.721.998l-3.916-1.264c.002-.04.012-.077.012-.117 0-1.103-.897-2-2-2s-2 .897-2 2c0 .2.038.389.093.571L1 11.08V1a.5.5 0 0 0-1 0v22.5a.5.5 0 0 0 .5.5H23a.5.5 0 0 0 0-1H1v-1.567l5.327-3.501A1.989 1.989 0 0 0 9.648 17h3.549c.224.86 1 1.5 1.929 1.5 1.103 0 2-.897 2-2 0-.185-.033-.361-.081-.531l3.537-2.063c.361.366.863.594 1.418.594z"/>
</svg>